<?xml version="1.0" encoding="utf-8"?>
<!-- Generator: Adobe Illustrator 29.1.0, SVG Export Plug-In . SVG Version: 9.03 Build 55587)  -->
<svg version="1.0" id="Warstwa_1" xmlns="http://www.w3.org/2000/svg" xmlns:xlink="http://www.w3.org/1999/xlink" x="0px" y="0px"
	 viewBox="0 0 547.552 334.027" enable-background="new 0 0 547.552 334.027" xml:space="preserve">
<g>
	<g>
		<g>
			<path fill="#FFFFFF" d="M163.378,3.419h52.926v193.242h-43.353V72.619l-48.823,91.492H99.511L50.824,72.619v124.042H7.335V3.419
				h53.746l51.012,95.459L163.378,3.419z"/>
			<path fill="#FFFFFF" d="M441.247,99.972c0,14.497-2.803,28.082-8.41,40.754c-5.608,12.674-13.382,23.571-23.318,32.686
				l18.189,25.712l-32.139,22.701l-19.967-27.899c-11.58,4.103-23.796,6.155-36.652,6.155c-14.315,0-27.81-2.578-40.481-7.727
				c-12.674-5.15-23.523-12.148-32.549-20.993c-9.026-8.843-16.138-19.441-21.335-31.797c-5.197-12.354-7.795-25.551-7.795-39.592
				c0-14.04,2.598-27.237,7.795-39.592c5.197-12.353,12.308-22.952,21.335-31.797c9.026-8.843,19.875-15.817,32.549-20.925
				C311.141,2.554,324.636,0,338.951,0c19.054,0,36.399,4.355,52.037,13.06c15.635,8.708,27.921,20.698,36.857,35.969
				C436.779,64.301,441.247,81.282,441.247,99.972z M338.951,158.231c4.192,0,7.932-0.364,11.214-1.094l-15.727-22.156
				l32.549-22.566l17.369,24.618c8.205-10.395,12.308-22.748,12.308-37.062c0-16.685-5.517-30.566-16.548-41.643
				c-11.033-11.078-24.754-16.616-41.165-16.616c-16.411,0-30.135,5.538-41.165,16.616c-11.033,11.077-16.548,24.958-16.548,41.643
				c0,16.684,5.515,30.566,16.548,41.643C308.817,152.692,322.54,158.231,338.951,158.231z"/>
		</g>
	</g>
	<g>
		<path fill="#FFFFFF" d="M45.893,334.027c-8.14,0-16.377-1.496-24.711-4.487C12.845,326.55,5.785,322.602,0,317.699l14.562-21.99
			c4.461,3.824,9.536,6.889,15.224,9.193c5.688,2.306,11.007,3.457,15.96,3.457c3.628,0,6.717-0.589,9.267-1.765
			c2.549-1.176,3.824-2.745,3.824-4.707c0-1.813-1.276-3.284-3.824-4.413c-2.55-1.127-7.086-2.5-13.606-4.118
			c-24.712-6.128-37.067-17.675-37.067-34.641c0-9.708,3.812-17.515,11.436-23.424c7.623-5.908,17.761-8.862,30.411-8.862
			c7.894,0,15.151,1.165,21.77,3.494c6.619,2.329,12.062,5.382,16.327,9.156l-13.091,21.99c-3.188-2.745-7.086-4.939-11.694-6.582
			c-4.609-1.642-9.145-2.463-13.606-2.463c-3.58,0-6.485,0.515-8.715,1.544c-2.231,1.03-3.346,2.379-3.346,4.045
			c0,3.285,5.222,6.104,15.665,8.458c1.813,0.393,3.468,0.797,4.964,1.214c1.495,0.418,3.665,1.116,6.509,2.097
			c2.843,0.981,5.369,2.035,7.575,3.162c2.206,1.129,4.608,2.636,7.207,4.523c2.598,1.888,4.768,3.91,6.509,6.068
			c1.74,2.158,3.199,4.756,4.376,7.796c1.177,3.041,1.765,6.301,1.765,9.782c0,6.472-1.875,12.258-5.626,17.357
			c-3.751,5.1-8.851,9.034-15.298,11.804C61.031,332.641,53.836,334.027,45.893,334.027z"/>
		<path fill="#FFFFFF" d="M160.441,325.054c-6.791,5.983-15.801,8.973-27.028,8.973c-11.228,0-20.238-2.99-27.028-8.973
			c-6.791-5.981-10.186-13.9-10.186-23.755v-45.893h27.139v42.142c0,3.089,0.919,5.565,2.758,7.428
			c1.839,1.865,4.277,2.795,7.318,2.795c3.04,0,5.479-0.93,7.318-2.795c1.839-1.862,2.758-4.339,2.758-7.428v-42.142h27.139v45.893
			C170.627,311.154,167.232,319.072,160.441,325.054z"/>
		<path fill="#FFFFFF" d="M277.637,253.567c8.531,0,15.358,2.563,20.483,7.686c5.123,5.124,7.686,11.951,7.686,20.482v50.453
			h-27.065v-42.142c0-3.09-0.883-5.577-2.648-7.465c-1.765-1.887-4.118-2.831-7.06-2.831c-3.089,0-5.615,0.981-7.575,2.942
			c-1.962,1.962-2.942,4.511-2.942,7.649v41.848h-27.139v-42.142c0-3.09-0.871-5.577-2.611-7.465
			c-1.741-1.887-4.082-2.831-7.024-2.831c-3.089,0-5.615,0.981-7.575,2.942c-1.962,1.962-2.942,4.511-2.942,7.649v41.848h-27.139
			v-76.782h27.139v5.663c5.442-5.001,12.061-7.502,19.857-7.502c9.708,0,17.087,3.457,22.138,10.37
			C259.545,257.024,267.683,253.567,277.637,253.567z"/>
		<path fill="#FFFFFF" d="M412.889,253.567c8.531,0,15.358,2.563,20.483,7.686c5.123,5.124,7.686,11.951,7.686,20.482v50.453
			h-27.065v-42.142c0-3.09-0.883-5.577-2.648-7.465c-1.765-1.887-4.118-2.831-7.06-2.831c-3.089,0-5.615,0.981-7.575,2.942
			c-1.962,1.962-2.942,4.511-2.942,7.649v41.848h-27.139v-42.142c0-3.09-0.871-5.577-2.611-7.465
			c-1.741-1.887-4.082-2.831-7.024-2.831c-3.089,0-5.615,0.981-7.575,2.942c-1.962,1.962-2.942,4.511-2.942,7.649v41.848h-27.139
			v-76.782h27.139v5.663c5.442-5.001,12.061-7.502,19.857-7.502c9.708,0,17.087,3.457,22.138,10.37
			C394.796,257.024,402.935,253.567,412.889,253.567z"/>
		<path fill="#FFFFFF" d="M454.589,332.188v-75.18h27.139v75.18H454.589z"/>
		<path fill="#FFFFFF" d="M547.552,280.044h-17.945v20.078c0,2.353,0.699,4.217,2.096,5.589c1.397,1.373,3.468,2.059,6.215,2.059
			c2.893,0,6.104-0.857,9.634-2.574v25.3c-4.511,2.354-9.684,3.531-15.518,3.531c-6.718,0-12.332-1.313-16.842-3.935
			c-4.511-2.623-7.759-6.092-9.745-10.407c-1.986-4.314-2.979-9.341-2.979-15.077v-24.564h-10.223v-24.638h10.223v-18.092h27.138
			v18.092h17.945V280.044z"/>
	</g>
	<path fill="#FFFFFF" d="M454.313,236.46v-29.197h27.649v29.197H454.313z"/>
</g>
</svg>
