<?xml version="1.0" encoding="utf-8"?>
<!-- Generator: Adobe Illustrator 29.1.0, SVG Export Plug-In . SVG Version: 9.03 Build 55587)  -->
<svg version="1.0" id="Warstwa_1" xmlns="http://www.w3.org/2000/svg" xmlns:xlink="http://www.w3.org/1999/xlink" x="0px" y="0px"
	 viewBox="0 0 547.552 496.743" enable-background="new 0 0 547.552 496.743" xml:space="preserve">
<g>
	<g>
		<g>
			<path fill="#FFFFFF" d="M163.378,3.419h52.926v193.242h-43.353V72.619l-48.823,91.492H99.511L50.824,72.619v124.042H7.335V3.419
				h53.746l51.012,95.459L163.378,3.419z"/>
			<path fill="#FFFFFF" d="M441.247,99.972c0,14.497-2.803,28.082-8.41,40.754c-5.608,12.674-13.382,23.571-23.318,32.686
				l18.189,25.712l-32.139,22.701l-19.967-27.899c-11.58,4.103-23.796,6.155-36.652,6.155c-14.315,0-27.81-2.578-40.481-7.727
				c-12.674-5.15-23.523-12.148-32.549-20.993c-9.026-8.843-16.138-19.441-21.335-31.797c-5.197-12.354-7.795-25.551-7.795-39.592
				c0-14.04,2.598-27.237,7.795-39.592c5.197-12.353,12.308-22.952,21.335-31.797c9.026-8.843,19.875-15.817,32.549-20.925
				C311.141,2.554,324.636,0,338.951,0c19.054,0,36.399,4.355,52.037,13.06c15.635,8.708,27.921,20.698,36.857,35.969
				C436.779,64.301,441.247,81.282,441.247,99.972z M338.951,158.231c4.192,0,7.932-0.364,11.214-1.094l-15.727-22.156
				l32.549-22.566l17.369,24.618c8.205-10.395,12.308-22.748,12.308-37.062c0-16.685-5.517-30.566-16.548-41.643
				c-11.033-11.078-24.754-16.616-41.165-16.616c-16.411,0-30.135,5.538-41.165,16.616c-11.033,11.077-16.548,24.958-16.548,41.643
				c0,16.684,5.515,30.566,16.548,41.643C308.817,152.692,322.54,158.231,338.951,158.231z"/>
		</g>
	</g>
	<g>
		<path fill="#FFFFFF" d="M45.893,334.027c-8.14,0-16.377-1.496-24.711-4.487C12.845,326.55,5.785,322.602,0,317.699l14.562-21.99
			c4.461,3.824,9.536,6.889,15.224,9.193c5.688,2.306,11.007,3.457,15.96,3.457c3.628,0,6.717-0.589,9.267-1.765
			c2.549-1.176,3.824-2.745,3.824-4.707c0-1.813-1.276-3.284-3.824-4.413c-2.55-1.127-7.086-2.5-13.606-4.118
			c-24.712-6.128-37.067-17.675-37.067-34.641c0-9.708,3.812-17.515,11.436-23.424c7.623-5.908,17.761-8.862,30.411-8.862
			c7.894,0,15.151,1.165,21.77,3.494c6.619,2.329,12.062,5.382,16.327,9.156l-13.091,21.99c-3.188-2.745-7.086-4.939-11.694-6.582
			c-4.609-1.642-9.145-2.463-13.606-2.463c-3.58,0-6.485,0.515-8.715,1.544c-2.231,1.03-3.346,2.379-3.346,4.045
			c0,3.285,5.222,6.104,15.665,8.458c1.813,0.393,3.468,0.797,4.964,1.214c1.495,0.418,3.665,1.116,6.509,2.097
			c2.843,0.981,5.369,2.035,7.575,3.162c2.206,1.129,4.608,2.636,7.207,4.523c2.598,1.888,4.768,3.91,6.509,6.068
			c1.74,2.158,3.199,4.756,4.376,7.796c1.177,3.041,1.765,6.301,1.765,9.782c0,6.472-1.875,12.258-5.626,17.357
			c-3.751,5.1-8.851,9.034-15.298,11.804C61.031,332.641,53.836,334.027,45.893,334.027z"/>
		<path fill="#FFFFFF" d="M160.441,325.054c-6.791,5.983-15.801,8.973-27.028,8.973c-11.228,0-20.238-2.99-27.028-8.973
			c-6.791-5.981-10.186-13.9-10.186-23.755v-45.893h27.139v42.142c0,3.089,0.919,5.565,2.758,7.428
			c1.839,1.865,4.277,2.795,7.318,2.795c3.04,0,5.479-0.93,7.318-2.795c1.839-1.862,2.758-4.339,2.758-7.428v-42.142h27.139v45.893
			C170.627,311.154,167.232,319.072,160.441,325.054z"/>
		<path fill="#FFFFFF" d="M277.637,253.567c8.531,0,15.358,2.563,20.483,7.686c5.123,5.124,7.686,11.951,7.686,20.482v50.453
			h-27.065v-42.142c0-3.09-0.883-5.577-2.648-7.465c-1.765-1.887-4.118-2.831-7.06-2.831c-3.089,0-5.615,0.981-7.575,2.942
			c-1.962,1.962-2.942,4.511-2.942,7.649v41.848h-27.139v-42.142c0-3.09-0.871-5.577-2.611-7.465
			c-1.741-1.887-4.082-2.831-7.024-2.831c-3.089,0-5.615,0.981-7.575,2.942c-1.962,1.962-2.942,4.511-2.942,7.649v41.848h-27.139
			v-76.782h27.139v5.663c5.442-5.001,12.061-7.502,19.857-7.502c9.708,0,17.087,3.457,22.138,10.37
			C259.545,257.024,267.683,253.567,277.637,253.567z"/>
		<path fill="#FFFFFF" d="M412.889,253.567c8.531,0,15.358,2.563,20.483,7.686c5.123,5.124,7.686,11.951,7.686,20.482v50.453
			h-27.065v-42.142c0-3.09-0.883-5.577-2.648-7.465c-1.765-1.887-4.118-2.831-7.06-2.831c-3.089,0-5.615,0.981-7.575,2.942
			c-1.962,1.962-2.942,4.511-2.942,7.649v41.848h-27.139v-42.142c0-3.09-0.871-5.577-2.611-7.465
			c-1.741-1.887-4.082-2.831-7.024-2.831c-3.089,0-5.615,0.981-7.575,2.942c-1.962,1.962-2.942,4.511-2.942,7.649v41.848h-27.139
			v-76.782h27.139v5.663c5.442-5.001,12.061-7.502,19.857-7.502c9.708,0,17.087,3.457,22.138,10.37
			C394.796,257.024,402.935,253.567,412.889,253.567z"/>
		<path fill="#FFFFFF" d="M454.589,332.188v-75.18h27.139v75.18H454.589z"/>
		<path fill="#FFFFFF" d="M547.552,280.044h-17.945v20.078c0,2.353,0.699,4.217,2.096,5.589c1.397,1.373,3.468,2.059,6.215,2.059
			c2.893,0,6.104-0.857,9.634-2.574v25.3c-4.511,2.354-9.684,3.531-15.518,3.531c-6.718,0-12.332-1.313-16.842-3.935
			c-4.511-2.623-7.759-6.092-9.745-10.407c-1.986-4.314-2.979-9.341-2.979-15.077v-24.564h-10.223v-24.638h10.223v-18.092h27.138
			v18.092h17.945V280.044z"/>
	</g>
	<path fill="#FFFFFF" d="M454.313,236.46v-29.197h27.649v29.197H454.313z"/>
	<g>
		<g>
			<path fill="#FFFFFF" d="M25.493,378.989h-0.475c-2.609,0-4.823,0.371-6.641,1.112c-1.819,0.741-3.321,1.734-4.507,2.979
				c-1.246,1.305-2.189,2.857-2.832,4.655c-0.643,1.799-1.023,3.647-1.142,5.544c0.514-0.613,1.107-1.181,1.779-1.705
				c0.672-0.523,1.403-0.983,2.194-1.378c0.771-0.375,1.606-0.677,2.505-0.904c0.899-0.227,1.843-0.341,2.832-0.341
				c2.154,0,4.012,0.411,5.574,1.23c1.561,0.821,2.846,1.903,3.854,3.247c1.009,1.345,1.75,2.867,2.224,4.566
				c0.474,1.7,0.711,3.429,0.711,5.188c0,2.016-0.281,3.914-0.845,5.693c-0.563,1.779-1.408,3.331-2.535,4.655
				c-1.127,1.344-2.525,2.402-4.195,3.172c-1.671,0.771-3.603,1.156-5.797,1.156c-2.214,0-4.161-0.444-5.841-1.334
				c-1.68-0.89-3.094-2.046-4.24-3.469c-1.285-1.561-2.244-3.384-2.876-5.47c-0.633-2.085-0.949-4.175-0.949-6.271v-2.579
				c0-3.598,0.425-7.135,1.275-10.615c0.85-3.479,2.51-6.453,4.981-8.924c1.7-1.7,3.766-2.98,6.197-3.84s5.189-1.29,8.272-1.29
				h0.475V378.989z M15.62,393.961c-0.87,0.297-1.681,0.712-2.432,1.246s-1.413,1.176-1.986,1.927
				c-0.573,0.751-1.028,1.582-1.364,2.49v1.838c0,1.897,0.227,3.583,0.682,5.055c0.454,1.473,1.067,2.713,1.838,3.721
				c0.771,1.008,1.66,1.774,2.668,2.298c1.008,0.524,2.065,0.786,3.172,0.786c1.285,0,2.421-0.247,3.41-0.741
				c0.988-0.494,1.828-1.176,2.52-2.046c0.671-0.87,1.181-1.913,1.527-3.128c0.346-1.216,0.519-2.535,0.519-3.958
				c0-1.265-0.159-2.495-0.475-3.691c-0.316-1.196-0.8-2.258-1.453-3.188c-0.652-0.929-1.473-1.67-2.461-2.224
				c-0.989-0.553-2.145-0.83-3.469-0.83C17.389,393.517,16.489,393.665,15.62,393.961z"/>
			<path fill="#FFFFFF" d="M99.617,417.266l-16.752-32.259l-0.089,32.259h-5.545v-43.169h5.574l16.752,32.199l0.089-32.199h5.544
				v43.169H99.617z"/>
			<path fill="#FFFFFF" d="M142.268,402.842c-0.247,1.571-0.628,3.088-1.142,4.551s-1.171,2.827-1.972,4.091
				c-0.8,1.265-1.754,2.372-2.861,3.321c-1.107,0.949-2.377,1.695-3.81,2.239c-1.434,0.543-3.039,0.815-4.818,0.815
				c-1.778,0-3.385-0.271-4.817-0.815c-1.434-0.543-2.704-1.29-3.811-2.239s-2.065-2.061-2.876-3.335s-1.473-2.644-1.986-4.106
				c-0.534-1.463-0.929-2.975-1.186-4.537c-0.257-1.561-0.396-3.113-0.415-4.655v-4.922c0.02-1.542,0.153-3.098,0.4-4.67
				c0.247-1.571,0.637-3.088,1.171-4.551c0.514-1.462,1.171-2.831,1.972-4.106c0.8-1.275,1.754-2.396,2.861-3.365
				c1.107-0.949,2.376-1.694,3.81-2.238c1.433-0.543,3.039-0.815,4.818-0.815s3.39,0.272,4.833,0.815
				c1.443,0.544,2.717,1.29,3.825,2.238c1.106,0.949,2.061,2.061,2.861,3.336c0.8,1.275,1.468,2.644,2.001,4.106
				c0.514,1.463,0.895,2.985,1.142,4.566c0.247,1.582,0.38,3.143,0.4,4.685v4.922C142.648,399.713,142.515,401.27,142.268,402.842z
				 M137.035,389.974c-0.119-1.116-0.316-2.228-0.593-3.335c-0.296-1.087-0.682-2.13-1.156-3.128s-1.067-1.883-1.779-2.654
				c-0.711-0.751-1.552-1.349-2.52-1.793c-0.969-0.445-2.096-0.667-3.38-0.667c-1.265,0-2.382,0.228-3.35,0.682
				c-0.969,0.455-1.809,1.058-2.521,1.809c-0.711,0.771-1.305,1.656-1.779,2.654s-0.85,2.041-1.126,3.128
				c-0.297,1.107-0.51,2.219-0.638,3.335c-0.129,1.117-0.203,2.179-0.223,3.188v4.981c0.02,1.008,0.094,2.075,0.223,3.202
				c0.128,1.126,0.341,2.234,0.638,3.321c0.296,1.107,0.682,2.165,1.156,3.172c0.474,1.008,1.067,1.888,1.779,2.639
				c0.711,0.771,1.551,1.384,2.52,1.838c0.969,0.455,2.095,0.682,3.38,0.682s2.417-0.227,3.396-0.682
				c0.978-0.455,1.823-1.067,2.535-1.838c0.692-0.751,1.27-1.625,1.735-2.624c0.464-0.998,0.845-2.05,1.141-3.157
				c0.277-1.087,0.469-2.194,0.578-3.321c0.108-1.127,0.173-2.204,0.193-3.232v-4.981
				C137.222,392.163,137.153,391.091,137.035,389.974z"/>
			<path fill="#FFFFFF" d="M147.976,374.097h5.87l9.488,32.229l0.622,2.105l0.652-2.165l9.547-32.169h5.841l-13.609,43.169h-4.773
				L147.976,374.097z"/>
			<path fill="#FFFFFF" d="M193.19,397.312v15.299h21.021v4.655h-26.506v-43.169h26.24v4.685H193.19v13.876h18.027v4.655H193.19z"/>
			<path fill="#FFFFFF" d="M236.953,395.681l7.591-21.584h6.819v43.169h-5.337v-17.227l0.444-18.027l-7.976,23.246h-3.143
				l-7.324-22.623l0.445,17.404v17.227h-5.337v-43.169h6.79L236.953,395.681z"/>
			<path fill="#FFFFFF" d="M260.287,374.097h12.839c1.778,0.02,3.518,0.252,5.218,0.697c1.7,0.444,3.212,1.131,4.536,2.061
				s2.382,2.115,3.173,3.558c0.79,1.443,1.176,3.173,1.156,5.189c-0.02,1.126-0.202,2.155-0.548,3.083
				c-0.347,0.929-0.816,1.759-1.409,2.491c-0.612,0.751-1.289,1.384-2.03,1.897c-0.742,0.514-1.637,0.998-2.684,1.453v0.089
				c1.087,0.257,2.135,0.722,3.143,1.394c1.008,0.672,1.839,1.414,2.49,2.224c0.692,0.89,1.23,1.888,1.616,2.995
				c0.386,1.107,0.578,2.303,0.578,3.588c0.02,2.016-0.366,3.795-1.156,5.337c-0.79,1.542-1.849,2.827-3.173,3.854
				c-1.324,1.048-2.851,1.848-4.58,2.401c-1.73,0.554-3.514,0.84-5.352,0.86h-13.817V374.097z M273.452,392.509
				c1.027-0.02,2.035-0.183,3.023-0.489c0.988-0.306,1.868-0.756,2.64-1.349c0.771-0.573,1.394-1.285,1.868-2.135
				c0.474-0.85,0.711-1.838,0.711-2.965c0-1.206-0.232-2.233-0.697-3.083c-0.464-0.85-1.082-1.552-1.853-2.105
				c-0.791-0.534-1.695-0.929-2.713-1.186c-1.019-0.257-2.061-0.396-3.128-0.415h-7.501v13.728H273.452z M265.802,412.611h8.45
				c1.146-0.02,2.233-0.212,3.261-0.578c1.027-0.366,1.937-0.875,2.728-1.527s1.418-1.453,1.883-2.401s0.697-2.026,0.697-3.232
				c0.02-1.225-0.184-2.312-0.608-3.261s-1.013-1.759-1.764-2.432c-0.751-0.652-1.631-1.156-2.639-1.512
				c-1.009-0.356-2.096-0.553-3.262-0.593h-8.747V412.611z"/>
			<path fill="#FFFFFF" d="M302.509,397.312v15.299h21.021v4.655h-26.507v-43.169h26.239v4.685h-20.754v13.876h18.026v4.655H302.509
				z"/>
			<path fill="#FFFFFF" d="M338.888,399.654v17.612h-5.455v-43.169h12.66c2.017,0.04,3.914,0.326,5.693,0.86
				c1.778,0.533,3.34,1.334,4.685,2.401c1.323,1.067,2.366,2.407,3.128,4.018c0.761,1.611,1.142,3.504,1.142,5.678
				c0,1.404-0.203,2.688-0.608,3.854c-0.405,1.167-0.963,2.224-1.675,3.172s-1.562,1.789-2.55,2.521s-2.076,1.354-3.262,1.868
				l9.162,18.442l-0.03,0.356h-5.781l-8.479-17.612H338.888z M346.241,395.147c1.226-0.02,2.382-0.212,3.469-0.578
				c1.087-0.365,2.046-0.894,2.876-1.586c0.811-0.692,1.453-1.537,1.928-2.535c0.474-0.998,0.712-2.15,0.712-3.454
				c0-1.383-0.229-2.594-0.683-3.632c-0.455-1.038-1.087-1.912-1.897-2.624c-0.811-0.691-1.774-1.215-2.891-1.571
				c-1.117-0.356-2.338-0.543-3.662-0.563h-7.205v16.544H346.241z"/>
			<path fill="#FFFFFF" d="M404.295,417.266v-3.943l14.143-15.714c1.265-1.403,2.323-2.648,3.173-3.736
				c0.85-1.087,1.531-2.095,2.046-3.024c0.514-0.909,0.879-1.774,1.097-2.595c0.218-0.82,0.326-1.665,0.326-2.535
				c0-1.067-0.173-2.07-0.519-3.01c-0.347-0.938-0.845-1.754-1.497-2.446c-0.673-0.692-1.479-1.24-2.417-1.646
				s-2.001-0.608-3.188-0.608c-1.442,0-2.693,0.208-3.75,0.623c-1.058,0.415-1.933,0.999-2.624,1.75
				c-0.712,0.771-1.241,1.7-1.586,2.787c-0.347,1.087-0.52,2.303-0.52,3.646h-5.515c0-1.818,0.315-3.533,0.948-5.144
				c0.633-1.611,1.552-3.019,2.758-4.225c1.186-1.206,2.644-2.165,4.373-2.876s3.701-1.067,5.915-1.067
				c2.036,0,3.87,0.302,5.5,0.904c1.631,0.603,3.01,1.438,4.137,2.505c1.126,1.067,1.991,2.333,2.594,3.795s0.904,3.054,0.904,4.773
				c0,1.285-0.218,2.555-0.651,3.81c-0.436,1.255-1.019,2.496-1.75,3.721c-0.752,1.226-1.615,2.437-2.594,3.632
				c-0.979,1.196-2.012,2.387-3.099,3.573l-11.593,12.571h21.674v4.477H404.295z"/>
			<path fill="#FFFFFF" d="M468.693,408.06c-0.633,2.125-1.542,3.909-2.728,5.352c-1.186,1.463-2.639,2.57-4.358,3.321
				s-3.687,1.126-5.9,1.126c-2.194,0-4.161-0.371-5.9-1.112s-3.212-1.853-4.417-3.335c-1.206-1.442-2.125-3.227-2.758-5.352
				c-0.633-2.125-0.949-4.561-0.949-7.309v-10.11c0-2.748,0.316-5.184,0.949-7.309s1.552-3.918,2.758-5.382
				c1.186-1.462,2.643-2.574,4.373-3.335c1.729-0.761,3.691-1.142,5.885-1.142c2.214,0,4.186,0.381,5.916,1.142
				c1.729,0.761,3.196,1.873,4.402,3.335c1.186,1.463,2.095,3.257,2.728,5.382s0.949,4.561,0.949,7.309v10.11
				C469.643,403.499,469.326,405.935,468.693,408.06z M464.009,386.757c-0.158-1.423-0.439-2.683-0.845-3.78
				s-0.954-2.011-1.646-2.743c-0.672-0.751-1.497-1.314-2.476-1.69s-2.11-0.563-3.396-0.563c-1.305,0-2.456,0.203-3.454,0.608
				c-0.998,0.405-1.843,0.993-2.534,1.764c-0.831,0.969-1.449,2.219-1.854,3.75c-0.405,1.532-0.607,3.306-0.607,5.322v7.234
				c0,0.494,0,0.989,0,1.482c0,0.495,0,0.999,0,1.512L464.009,386.757z M464.128,395.8c0-0.296,0-0.864,0-1.705
				c0-0.84,0-1.537,0-2.09l-16.782,12.838c0.179,1.443,0.494,2.713,0.949,3.81c0.454,1.097,1.048,2.001,1.778,2.713
				c0.672,0.672,1.482,1.182,2.432,1.527c0.949,0.346,2.017,0.519,3.202,0.519c1.245,0,2.353-0.188,3.321-0.563
				c0.968-0.375,1.788-0.919,2.461-1.63c0.908-0.968,1.576-2.233,2.001-3.795c0.425-1.561,0.638-3.399,0.638-5.515V395.8z"/>
			<path fill="#FFFFFF" d="M477.173,417.266v-3.943l14.144-15.714c1.265-1.403,2.322-2.648,3.173-3.736
				c0.85-1.087,1.531-2.095,2.045-3.024c0.514-0.909,0.88-1.774,1.098-2.595c0.217-0.82,0.326-1.665,0.326-2.535
				c0-1.067-0.174-2.07-0.52-3.01c-0.346-0.938-0.845-1.754-1.497-2.446c-0.672-0.692-1.478-1.24-2.416-1.646
				c-0.939-0.405-2.002-0.608-3.188-0.608c-1.443,0-2.693,0.208-3.751,0.623s-1.932,0.999-2.624,1.75
				c-0.712,0.771-1.24,1.7-1.586,2.787c-0.347,1.087-0.519,2.303-0.519,3.646h-5.516c0-1.818,0.316-3.533,0.949-5.144
				c0.633-1.611,1.552-3.019,2.758-4.225c1.186-1.206,2.643-2.165,4.373-2.876c1.729-0.711,3.701-1.067,5.915-1.067
				c2.035,0,3.869,0.302,5.5,0.904c1.631,0.603,3.009,1.438,4.136,2.505s1.991,2.333,2.595,3.795
				c0.603,1.463,0.904,3.054,0.904,4.773c0,1.285-0.218,2.555-0.652,3.81s-1.019,2.496-1.749,3.721
				c-0.752,1.226-1.616,2.437-2.595,3.632c-0.979,1.196-2.012,2.387-3.099,3.573l-11.593,12.571h21.674v4.477H477.173z"/>
			<path fill="#FFFFFF" d="M519.542,374.097h22.148v5.337h-17.522l-1.216,11.504c0.85-0.494,1.868-0.929,3.054-1.305
				c1.187-0.375,2.56-0.563,4.122-0.563c1.996,0,3.784,0.346,5.366,1.038c1.581,0.692,2.925,1.66,4.032,2.905
				c1.106,1.265,1.957,2.787,2.55,4.566c0.593,1.779,0.89,3.756,0.89,5.93c0,2.056-0.277,3.963-0.83,5.722
				c-0.554,1.76-1.384,3.272-2.491,4.537c-1.126,1.285-2.54,2.288-4.239,3.009c-1.7,0.721-3.697,1.082-5.989,1.082
				c-1.76,0-3.42-0.247-4.981-0.741c-1.562-0.494-2.945-1.235-4.15-2.224c-1.227-0.988-2.229-2.233-3.01-3.736
				c-0.781-1.502-1.271-3.251-1.468-5.248h5.218c0.336,2.451,1.24,4.31,2.713,5.574c1.473,1.265,3.365,1.897,5.679,1.897
				c1.305,0,2.461-0.232,3.469-0.697c1.008-0.464,1.857-1.131,2.55-2.001c0.672-0.85,1.181-1.878,1.527-3.083
				c0.346-1.206,0.519-2.55,0.519-4.033c0-1.344-0.192-2.599-0.578-3.765c-0.386-1.166-0.944-2.184-1.675-3.054
				c-0.732-0.85-1.631-1.521-2.698-2.016c-1.067-0.494-2.294-0.741-3.677-0.741c-0.909,0-1.695,0.064-2.357,0.193
				c-0.662,0.129-1.26,0.311-1.794,0.548c-0.533,0.237-1.032,0.524-1.497,0.86c-0.465,0.336-0.944,0.722-1.438,1.156l-4.389-1.126
				L519.542,374.097z"/>
			<path fill="#FFFFFF" d="M4.9,445.142h12.051c1.67,0.019,3.302,0.236,4.898,0.654c1.595,0.417,3.015,1.062,4.258,1.934
				c1.243,0.873,2.235,1.986,2.978,3.34c0.742,1.354,1.104,2.978,1.085,4.871c-0.019,1.058-0.19,2.022-0.515,2.895
				c-0.325,0.873-0.766,1.652-1.322,2.338c-0.575,0.706-1.211,1.299-1.906,1.781c-0.696,0.483-1.536,0.937-2.519,1.364v0.083
				c1.02,0.241,2.004,0.678,2.95,1.308c0.946,0.631,1.726,1.327,2.338,2.087c0.649,0.835,1.155,1.772,1.517,2.811
				c0.361,1.04,0.542,2.162,0.542,3.368c0.018,1.893-0.343,3.562-1.085,5.01s-1.735,2.654-2.978,3.618
				c-1.244,0.984-2.677,1.735-4.3,2.254c-1.624,0.52-3.298,0.789-5.023,0.807H4.9V445.142z M17.258,462.426
				c0.965-0.018,1.911-0.171,2.839-0.459c0.928-0.287,1.753-0.709,2.477-1.266c0.724-0.538,1.308-1.206,1.753-2.004
				c0.445-0.797,0.668-1.726,0.668-2.783c0-1.131-0.218-2.097-0.654-2.895c-0.436-0.797-1.016-1.457-1.739-1.976
				c-0.742-0.501-1.591-0.872-2.547-1.113c-0.956-0.241-1.934-0.371-2.936-0.39h-7.042v12.886H17.258z M10.077,481.296h7.932
				c1.076-0.018,2.096-0.199,3.062-0.542c0.964-0.343,1.818-0.821,2.561-1.434c0.742-0.612,1.331-1.364,1.767-2.254
				s0.654-1.902,0.654-3.034c0.019-1.15-0.172-2.171-0.57-3.062c-0.399-0.891-0.951-1.651-1.656-2.282
				c-0.705-0.612-1.531-1.085-2.477-1.419s-1.967-0.519-3.062-0.557h-8.21V481.296z"/>
			<path fill="#FFFFFF" d="M44.59,466.935v14.361h19.733v4.37H39.441v-40.523h24.631v4.397H44.59v13.025h16.922v4.37H44.59z"/>
			<path fill="#FFFFFF" d="M78.797,469.134v16.532h-5.121v-40.523h11.885c1.893,0.038,3.674,0.306,5.344,0.807
				s3.135,1.252,4.397,2.254c1.243,1.002,2.222,2.259,2.936,3.771s1.072,3.289,1.072,5.33c0,1.318-0.19,2.523-0.571,3.618
				c-0.38,1.095-0.905,2.087-1.573,2.978s-1.466,1.68-2.394,2.366c-0.928,0.687-1.948,1.271-3.062,1.753l8.601,17.312l-0.028,0.334
				h-5.427l-7.96-16.532H78.797z M85.699,464.903c1.15-0.018,2.236-0.199,3.257-0.543c1.02-0.343,1.92-0.839,2.699-1.489
				c0.761-0.649,1.364-1.442,1.81-2.379s0.668-2.018,0.668-3.243c0-1.298-0.214-2.435-0.641-3.41
				c-0.427-0.974-1.021-1.795-1.781-2.463c-0.761-0.649-1.665-1.141-2.713-1.475s-2.194-0.51-3.437-0.529h-6.764v15.53H85.699z"/>
			<path fill="#FFFFFF" d="M133.377,481.296v4.37h-24.965v-40.523h5.149v36.154H133.377z"/>
			<path fill="#FFFFFF" d="M166.499,445.142v4.481h-9.713v31.589h9.713v4.453h-24.492v-4.453h9.491v-31.589h-9.491v-4.481H166.499z"
				/>
			<path fill="#FFFFFF" d="M196.419,485.666l-15.725-30.281l-0.084,30.281h-5.204v-40.523h5.232l15.725,30.226l0.084-30.226h5.204
				v40.523H196.419z"/>
			<path fill="#FFFFFF" d="M254.98,496.743v-51.601h4.147v51.601H254.98z"/>
			<path fill="#FFFFFF" d="M337.533,482.368c-0.706,0.603-1.438,1.127-2.199,1.572c-1.299,0.779-2.699,1.359-4.202,1.739
				c-1.503,0.38-3.08,0.561-4.731,0.543c-1.67-0.019-3.206-0.274-4.606-0.766c-1.401-0.491-2.658-1.173-3.771-2.045
				c-1.113-0.853-2.087-1.865-2.922-3.034s-1.531-2.439-2.088-3.813c-0.575-1.354-1.007-2.778-1.294-4.272
				c-0.288-1.494-0.44-3.001-0.459-4.523v-4.704c0.019-1.503,0.153-3.001,0.403-4.495c0.25-1.493,0.635-2.926,1.155-4.3
				c0.519-1.373,1.169-2.648,1.948-3.827c0.779-1.178,1.716-2.203,2.811-3.075c1.076-0.853,2.301-1.531,3.674-2.032
				s2.913-0.751,4.62-0.751c1.893,0,3.637,0.292,5.232,0.877c1.596,0.584,2.987,1.415,4.175,2.491
				c1.188,1.095,2.144,2.408,2.867,3.938c0.724,1.531,1.169,3.243,1.336,5.135h-5.094c-0.204-1.169-0.52-2.25-0.946-3.243
				c-0.427-0.992-0.983-1.841-1.67-2.546c-0.705-0.705-1.54-1.257-2.505-1.656s-2.087-0.599-3.367-0.599
				c-1.225,0-2.311,0.209-3.257,0.626c-0.946,0.418-1.772,0.979-2.477,1.684c-0.706,0.706-1.29,1.526-1.754,2.463
				s-0.845,1.925-1.141,2.964c-0.298,1.04-0.511,2.097-0.641,3.173c-0.13,1.076-0.194,2.115-0.194,3.117v4.759
				c0.018,1.021,0.106,2.074,0.264,3.159c0.158,1.086,0.404,2.148,0.738,3.187c0.334,1.04,0.76,2.022,1.28,2.95
				c0.519,0.928,1.149,1.744,1.893,2.449c0.724,0.706,1.567,1.266,2.532,1.684c0.965,0.417,2.06,0.636,3.284,0.654
				c0.705,0.019,1.442-0.009,2.213-0.083c0.77-0.074,1.517-0.223,2.24-0.445s1.401-0.524,2.032-0.904s1.159-0.877,1.586-1.489
				l0.056-9.101h-8.238v-4.342h13.137l0.084,14.862C338.905,481.092,338.237,481.765,337.533,482.368z"/>
			<path fill="#FFFFFF" d="M352.953,466.935v14.361h19.733v4.37h-24.882v-40.523h24.631v4.397h-19.482v13.025h16.922v4.37H352.953z"
				/>
			<path fill="#FFFFFF" d="M387.16,469.134v16.532h-5.121v-40.523h11.884c1.893,0.038,3.674,0.306,5.344,0.807
				s3.136,1.252,4.398,2.254c1.242,1.002,2.221,2.259,2.936,3.771s1.072,3.289,1.072,5.33c0,1.318-0.191,2.523-0.571,3.618
				c-0.38,1.095-0.904,2.087-1.572,2.978s-1.466,1.68-2.394,2.366c-0.928,0.687-1.948,1.271-3.062,1.753l8.601,17.312l-0.028,0.334
				h-5.427l-7.961-16.532H387.16z M394.062,464.903c1.15-0.018,2.235-0.199,3.257-0.543c1.02-0.343,1.92-0.839,2.699-1.489
				c0.761-0.649,1.363-1.442,1.809-2.379s0.668-2.018,0.668-3.243c0-1.298-0.213-2.435-0.64-3.41
				c-0.427-0.974-1.021-1.795-1.781-2.463c-0.761-0.649-1.665-1.141-2.714-1.475s-2.194-0.51-3.438-0.529h-6.763v15.53H394.062z"/>
			<path fill="#FFFFFF" d="M428.353,465.404l7.125-20.262h6.402v40.523h-5.01v-16.17l0.417-16.922l-7.487,21.82h-2.949
				l-6.875-21.236l0.418,16.337v16.17h-5.01v-40.523h6.373L428.353,465.404z"/>
			<path fill="#FFFFFF" d="M456.187,475.173l-3.257,10.493h-5.148l13.081-40.523h4.313l12.858,40.523h-5.121l-3.2-10.493H456.187z
				 M468.349,470.692l-5.344-17.59l-5.427,17.59H468.349z"/>
			<path fill="#FFFFFF" d="M504.782,485.666l-15.725-30.281l-0.084,30.281h-5.205v-40.523h5.232l15.726,30.226l0.083-30.226h5.205
				v40.523H504.782z"/>
			<path fill="#FFFFFF" d="M540.075,445.142h5.844l-12.607,25.411l-0.084,15.113h-4.787l-0.083-15.113l-12.608-25.411h5.873
				l9.213,20.345L540.075,445.142z"/>
		</g>
	</g>
</g>
</svg>
